<?xml version="1.0" standalone="no"?><!DOCTYPE svg PUBLIC "-//W3C//DTD SVG 1.1//EN" "http://www.w3.org/Graphics/SVG/1.1/DTD/svg11.dtd"><svg t="1664416208764" class="icon" viewBox="0 0 1024 1024" version="1.1" xmlns="http://www.w3.org/2000/svg" p-id="3079" xmlns:xlink="http://www.w3.org/1999/xlink" width="28" height="28"><path d="M733.866667 59.733333a128 128 0 0 1 128 128v648.533334a128 128 0 0 1-128 128H290.133333A128 128 0 0 1 162.133333 836.266667V187.733333A128 128 0 0 1 290.133333 59.733333h443.733334zM810.666667 802.133333h-597.333334v34.133334a76.8 76.8 0 0 0 76.8 76.8h443.733334a76.8 76.8 0 0 0 76.8-76.8v-34.133334zM733.866667 110.933333H290.133333a76.8 76.8 0 0 0-76.8 76.8v563.2h597.333334V187.733333A76.8 76.8 0 0 0 733.866667 110.933333z" fill="#404040" p-id="3080"></path><path d="M368.9984 230.4l96.426667 96.426667a25.6 25.6 0 0 1-36.215467 36.181333L332.8 266.5984V324.266667a25.6 25.6 0 0 1-51.2 0v-85.333334a59.733333 59.733333 0 0 1 59.733333-59.733333h85.333334a25.6 25.6 0 0 1 0 51.2h-57.668267zM658.568533 626.517333l-96.4096-96.426666a25.6 25.6 0 0 1 36.215467-36.181334l96.4096 96.392534V532.650667a25.6 25.6 0 0 1 51.2 0v85.333333a59.733333 59.733333 0 0 1-59.733333 59.733333h-85.333334a25.6 25.6 0 1 1 0-51.2h57.6512z" fill="#404040" p-id="3081"></path></svg>